:FULLY-SPECIFIED
:FORCE-ALL-JOINTS-BE-3DOF
:DEGREES
136
root 7.82523 16.5411 -26.2806 -10.6717 9.1322 5.41082
lfemur -5.33062 13.0053 -21.743
ltibia 35.2661 -0 0
lfoot -17.6689 -10.9563 0.00939409
ltoes 29.0663 -0 0
rfemur -100.4 -26.12 59.7358
rtibia 86.0576 -0 0
rfoot 5.11586 19.1404 -0.353795
rtoes -26.5125 0 0
lowerback 17.1167 -3.03341 -9.04342
upperback 5.68001 -5.53305 -1.86138
thorax -2.77938 -2.78249 4.13178
lowerneck -12.6129 -0.600256 -0.16982
upperneck 0.687021 -0.918319 3.1175
head 2.43297 -0.347838 0.985006
lclavicle 0 0 0
lhumerus -41.3913 -21.6803 90.2721
lradius 53.453 -0 0
lwrist 17.2301 0 0
lhand 9.33259 6.64934 0.0347021
lfingers 0 -0 0
lthumb 34.4873 33.2732 0.0150869
rclavicle 0 0 0
rhumerus -43.8987 -25.1752 -57.2849
rradius 80.1656 -0 0
rwrist -35.7108 0 0
rhand -15.7843 -28.1928 1.64774
rfingers 0 -0 0
rthumb 10.3928 -57.1913 1.6183
137
root 7.78365 16.5237 -26.2765 -10.3197 10.1399 5.17666
lfemur -6.07203 13.3947 -21.3962
ltibia 35.7465 -0 0
lfoot -17.7858 -11.8768 0.0112734
ltoes 29.3325 -0 0
rfemur -100.805 -26.1331 58.5952
rtibia 89.9955 -0 0
rfoot 11.5515 18.505 -0.425464
rtoes -18.6565 0 0
lowerback 17.0237 -3.35728 -8.93509
upperback 5.57299 -5.93737 -1.92144
thorax -2.81208 -2.97544 4.07208
lowerneck -12.5136 -0.725927 -0.32784
upperneck 0.604836 -1.07055 3.37379
head 2.395 -0.417158 1.08707
lclavicle 0 0 0
lhumerus -40.8601 -22.6874 90.3333
lradius 52.8581 -0 0
lwrist 16.9263 0 0
lhand 10.2953 7.06248 0.0416448
lfingers 0 -0 0
lthumb 35.3993 33.4628 0.018105
rclavicle 0 0 0
rhumerus -44.7356 -25.558 -57.9922
rradius 81.3037 -0 0
rwrist -34.8895 0 0
rhand -21.4062 -31.5826 1.98166
rfingers 0 -0 0
rthumb 4.96977 -60.6413 1.94608
138
root 7.74207 16.5064 -26.2725 -9.97077 11.149 4.94803
lfemur -6.81222 13.7885 -21.0541
ltibia 36.2269 -0 0
lfoot -17.9028 -12.7974 0.0112734
ltoes 29.5986 -0 0
rfemur -101.21 -26.1534 57.4545
rtibia 93.9333 -0 0
rfoot 17.9876 17.8656 -0.425464
rtoes -10.8004 0 0
lowerback 16.93 -3.68098 -8.82619
upperback 5.46631 -6.3418 -1.98079
thorax -2.84458 -3.16842 4.01248
lowerneck -12.4139 -0.851323 -0.486081
upperneck 0.521966 -1.22241 3.63032
head 2.3569 -0.486411 1.18919
lclavicle 0 0 0
lhumerus -40.326 -23.695 90.3849
lradius 52.2631 -0 0
lwrist 16.6226 0 0
lhand 11.2581 7.47569 0.0416448
lfingers 0 -0 0
lthumb 36.3113 33.6525 0.018105
rclavicle 0 0 0
rhumerus -45.5699 -25.9501 -58.6956
rradius 82.4417 -0 0
rwrist -34.0683 0 0
rhand -27.0385 -34.9891 1.98166
rfingers 0 -0 0
rthumb -0.463672 -64.1072 1.94608
139
root 7.70049 16.489 -26.2684 -9.62467 12.1595 4.72487
lfemur -7.55125 14.1866 -20.7167
ltibia 36.7073 -0 0
lfoot -18.0197 -13.7179 0.00939409
ltoes 29.8648 -0 0
rfemur -101.615 -26.1809 56.3138
rtibia 97.8712 -0 0
rfoot 24.4232 17.2302 -0.353795
rtoes -2.94439 0 0
lowerback 16.8357 -4.0045 -8.71673
upperback 5.35997 -6.74634 -2.03943
thorax -2.87689 -3.36144 3.95299
lowerneck -12.3139 -0.976443 -0.644546
upperneck 0.438412 -1.3739 3.88708
head 2.31868 -0.555595 1.29135
lclavicle 0 0 0
lhumerus -39.7886 -24.703 90.4265
lradius 51.6682 -0 0
lwrist 16.3188 0 0
lhand 12.2208 7.88883 0.0347021
lfingers 0 -0 0
lthumb 37.2233 33.8421 0.0150869
rclavicle 0 0 0
rhumerus -46.4016 -26.3514 -59.3948
rradius 83.5798 -0 0
rwrist -33.247 0 0
rhand -32.6604 -38.3789 1.64774
rfingers 0 -0 0
rthumb -5.88671 -67.5572 1.6183
140
root 7.6589 16.4717 -26.2644 -9.28125 13.1712 4.50708
lfemur -8.28917 14.5888 -20.3839
ltibia 37.1877 -0 0
lfoot -18.1367 -14.6385 0.00563596
ltoes 30.1309 -0 0
rfemur -102.019 -26.2156 55.173
rtibia 101.809 -0 0
rfoot 30.8577 16.6069 -0.21137
rtoes 4.91166 -0 0
lowerback 16.7407 -4.32784 -8.60668
upperback 5.25395 -7.15099 -2.09736
thorax -2.90901 -3.55449 3.89359
lowerneck -12.2135 -1.10129 -0.803236
upperneck 0.354174 -1.52502 4.14407
head 2.28033 -0.624711 1.39356
lclavicle 0 0 0
lhumerus -39.2476 -25.7114 90.4579
lradius 51.0732 -0 0
lwrist 16.015 0 0
lhand 13.1835 8.30179 0.0208189
lfingers 0 -0 0
lthumb 38.1353 34.0316 0.00905132
rclavicle 0 0 0
rhumerus -47.2307 -26.7617 -60.09
rradius 84.7178 -0 0
rwrist -32.4258 0 0
rhand -38.2516 -41.7191 0.984312
rfingers 0 -0 0
rthumb -11.2792 -70.9602 0.966903
141
root 7.61732 16.4543 -26.2603 -8.94031 14.1842 4.29462
lfemur -9.02603 14.9952 -20.056
ltibia 37.6681 0 0
lfoot -18.2535 -15.559 0
ltoes 30.3971 0 0
rfemur -102.423 -26.2576 54.0322
rtibia 105.747 0 0
rfoot 37.2901 16.0035 0
rtoes 12.7677 0 0
lowerback 16.645 -4.65099 -8.49605
upperback 5.14825 -7.55574 -2.15459
thorax -2.94093 -3.74757 3.83428
lowerneck -12.1128 -1.22585 -0.962151
upperneck 0.269253 -1.67575 4.40131
head 2.24186 -0.693758 1.49582
lclavicle 3.65267e-14 9.93923e-15 0
lhumerus -38.7025 -26.7199 90.479
lradius 50.4783 0 0
lwrist 15.7112 0 0
lhand 14.146 8.71447 0
lfingers 7.12502 0 0
lthumb 39.0472 34.221 0
rclavicle 3.65267e-14 9.93923e-15 0
rhumerus -48.0572 -27.1809 -60.781
rradius 85.8559 0 0
rwrist -31.6045 0 0
rhand -43.7941 -44.9784 0
rfingers 7.12502 0 0
rthumb -16.623 -74.2865 0
142
root 7.56602 16.4507 -26.2513 -8.36201 14.9861 3.99558
lfemur -9.86588 15.7142 -19.7152
ltibia 37.8133 -0 0
lfoot -18.2629 -13.4132 -0.00106488
ltoes 26.5798 -0 0
rfemur -100.351 -27.1759 51.571
rtibia 107.461 -0 0
rfoot 35.088 16.8922 -0.103004
rtoes 7.18983 -0 0
lowerback 16.2267 -4.76008 -8.41325
upperback 4.96228 -7.6534 -2.06366
thorax -2.90214 -3.79351 3.86363
lowerneck -12.0476 -1.44673 -1.01671
upperneck 0.219046 -1.96281 4.47954
head 2.22476 -0.835567 1.5151
lclavicle 0 0 0
lhumerus -38.1915 -27.5204 90.9369
lradius 49.8865 -0 0
lwrist 14.7285 0 0
lhand 15.5146 9.19984 0.034848
lfingers 0 -0 0
lthumb 40.3248 34.2371 0.00108112
rclavicle 0 0 0
rhumerus -48.8853 -26.032 -62.0998
rradius 86.6709 -0 0
rwrist -27.9853 0 0
rhand -43.1271 -45.7113 -0.0256185
rfingers 0 -0 0
rthumb -15.9804 -75.0652 -0.0262257
143
root 7.51471 16.447 -26.2423 -7.78583 15.791 3.70381
lfemur -10.7043 16.4378 -19.3842
ltibia 37.9586 -0 0
lfoot -18.2724 -11.2675 -0.00177564
ltoes 22.7625 -0 0
rfemur -98.2189 -28.013 49.054
rtibia 109.176 -0 0
rfoot 32.8845 17.7842 -0.171772
rtoes 1.61196 -0 0
lowerback 15.8081 -4.86857 -8.32965
upperback 4.77611 -7.75078 -1.9724
thorax -2.86337 -3.83946 3.89294
lowerneck -11.9822 -1.66755 -1.07152
upperneck 0.168437 -2.2498 4.55804
head 2.20761 -0.977371 1.53443
lclavicle 0 0 0
lhumerus -37.684 -28.3245 91.3901
lradius 49.2946 -0 0
lwrist 13.7457 0 0
lhand 16.8834 9.6859 0.0580925
lfingers 0 -0 0
lthumb 41.6025 34.2533 0.00180217
rclavicle 0 0 0
rhumerus -49.7346 -24.9005 -63.4242
rradius 87.486 -0 0
rwrist -24.3661 0 0
rhand -42.4599 -46.4445 -0.0427018
rfingers 0 -0 0
rthumb -15.3374 -75.8441 -0.043714
144
root 7.46341 16.4434 -26.2333 -7.21157 16.5986 3.4193
lfemur -11.5416 17.1661 -19.0631
ltibia 38.1038 -0 0
lfoot -18.2819 -9.12169 -0.00213126
ltoes 18.9452 -0 0
rfemur -96.0313 -28.7654 46.4844
rtibia 110.89 -0 0
rfoot 30.6803 18.6783 -0.206186
rtoes -3.96591 0 0
lowerback 15.3894 -4.97645 -8.24524
upperback 4.58973 -7.84785 -1.88079
thorax -2.82462 -3.88543 3.92223
lowerneck -11.9166 -1.88831 -1.12659
upperneck 0.117424 -2.53672 4.63681
head 2.19041 -1.11917 1.5538
lclavicle 0 0 0
lhumerus -37.1798 -29.1321 91.8387
lradius 48.7028 -0 0
lwrist 12.763 0 0
lhand 18.2524 10.1724 0.0697185
lfingers 0 -0 0
lthumb 42.8801 34.2695 0.00216279
rclavicle 0 0 0
rhumerus -50.6047 -23.787 -64.7552
rradius 88.301 -0 0
rwrist -20.747 0 0
rhand -41.7924 -47.1778 -0.0512447
rfingers 0 -0 0
rthumb -14.6943 -76.6232 -0.0524595
145
root 7.4121 16.4398 -26.2243 -6.63904 17.4088 3.14206
lfemur -12.3779 17.8988 -18.7518
ltibia 38.249 -0 0
lfoot -18.2914 -6.97592 -0.00213126
ltoes 15.1279 -0 0
rfemur -93.792 -29.4299 43.8659
rtibia 112.604 -0 0
rfoot 28.4757 19.5729 -0.206186
rtoes -9.54379 0 0
lowerback 14.9704 -5.0837 -8.16002
upperback 4.40316 -7.94464 -1.78885
thorax -2.78589 -3.93143 3.95149
lowerneck -11.8508 -2.109 -1.18192
upperneck 0.0660038 -2.82358 4.71585
head 2.17317 -1.26096 1.57321
lclavicle 0 0 0
lhumerus -36.6789 -29.9431 92.2826
lradius 48.1109 -0 0
lwrist 11.7802 0 0
lhand 19.6214 10.659 0.0697185
lfingers 0 -0 0
lthumb 44.1577 34.2856 0.00216279
rclavicle 0 0 0
rhumerus -51.4955 -22.6923 -66.0934
rradius 89.116 -0 0
rwrist -17.1278 0 0
rhand -41.125 -47.9111 -0.0512447
rfingers 0 -0 0
rthumb -14.0512 -77.4023 -0.0524595
146
root 7.3608 16.4362 -26.2153 -6.06803 18.2217 2.87209
lfemur -13.2136 18.6357 -18.4506
ltibia 38.3942 -0 0
lfoot -18.3009 -4.83015 -0.00177564
ltoes 11.3105 -0 0
rfemur -91.5063 -30.0036 41.2033
rtibia 114.318 -0 0
rfoot 26.2715 20.467 -0.171772
rtoes -15.1217 0 0
lowerback 14.5511 -5.19034 -8.074
upperback 4.21639 -8.04112 -1.69656
thorax -2.74719 -3.97744 3.98071
lowerneck -11.7848 -2.32963 -1.23751
upperneck 0.0141744 -3.11036 4.79517
head 2.15587 -1.40275 1.59267
lclavicle 0 0 0
lhumerus -36.1812 -30.7574 92.722
lradius 47.5191 -0 0
lwrist 10.7975 0 0
lhand 20.9904 11.1455 0.0580925
lfingers 0 -0 0
lthumb 45.4353 34.3018 0.00180217
rclavicle 0 0 0
rhumerus -52.4066 -21.6171 -67.4394
rradius 89.931 -0 0
rwrist -13.5086 0 0
rhand -40.4575 -48.6444 -0.0427018
rfingers 0 -0 0
rthumb -13.4081 -78.1814 -0.043714
147
root 7.30949 16.4325 -26.2063 -5.49834 19.0372 2.60941
lfemur -14.0489 19.3767 -18.1595
ltibia 38.5395 -0 0
lfoot -18.3104 -2.68438 -0.00106488
ltoes 7.49323 -0 0
rfemur -89.1798 -30.4837 38.502
rtibia 116.033 -0 0
rfoot 24.068 21.359 -0.103004
rtoes -20.6995 0 0
lowerback 14.1317 -5.29634 -7.98719
upperback 4.02942 -8.1373 -1.60393
thorax -2.7085 -4.02348 4.00991
lowerneck -11.7185 -2.5502 -1.29337
upperneck -0.0380675 -3.39706 4.87477
head 2.13852 -1.54453 1.61217
lclavicle 0 0 0
lhumerus -35.6865 -31.575 93.1568
lradius 46.9272 -0 0
lwrist 9.81475 0 0
lhand 22.3592 11.6315 0.034848
lfingers 0 -0 0
lthumb 46.713 34.318 0.00108112
rclavicle 0 0 0
rhumerus -53.338 -20.562 -68.794
rradius 90.7461 -0 0
rwrist -9.8894 0 0
rhand -39.7903 -49.3776 -0.0256185
rfingers 0 -0 0
rthumb -12.7651 -78.9603 -0.0262257
